<svg xmlns="http://www.w3.org/2000/svg" xmlns:xlink="http://www.w3.org/1999/xlink" xmlns:lucid="lucid" width="1616" height="2217"><g transform="translate(1221 600)" lucid:page-tab-id="0_0"><path d="M-1500-1000H500v3000h-2000z" fill="#fff"/><path d="M-612.6-455a6 6 0 0 1 6-6H-146a6 6 0 0 1 6 6v769a6 6 0 0 1-6 6h-460.6a6 6 0 0 1-6-6z" stroke="#000" stroke-width="2" fill-opacity="0"/><use xlink:href="#a" transform="matrix(1,0,0,1,-604.6068303697432,-452.9957662997459) translate(134.15321180555554 21.52777777777778)"/><use xlink:href="#b" transform="matrix(1,0,0,1,-604.6068303697432,-452.9957662997459) translate(235.57465277777777 21.52777777777778)"/><path d="M-272.37-350c0 27.6-49.25 50-110 50s-110-22.4-110-50 49.25-50 110-50 110 22.4 110 50z" stroke="#000" stroke-width="2" fill="#fff"/><use xlink:href="#c" transform="matrix(1,0,0,1,-492.3731301157212,-400) translate(51.40682617187499 56.841875)"/><use xlink:href="#d" transform="matrix(1,0,0,1,-492.3731301157212,-400) translate(111.664287109375 56.841875)"/><use xlink:href="#e" transform="matrix(1,0,0,1,-492.3731301157212,-400) translate(138.4172265625 56.841875)"/><path d="M-272.37-205.26c0 27.6-49.25 50-110 50s-110-22.4-110-50c0-27.62 49.25-50 110-50s110 22.38 110 50z" stroke="#000" stroke-width="2" fill="#fff"/><use xlink:href="#f" transform="matrix(1,0,0,1,-492.3731301157212,-255.26093705898955) translate(56.46642578124999 56.841875)"/><use xlink:href="#g" transform="matrix(1,0,0,1,-492.3731301157212,-255.26093705898955) translate(101.38978515625 56.841875)"/><path d="M-272.37-60.52c0 27.6-49.25 50-110 50s-110-22.4-110-50c0-27.62 49.25-50 110-50s110 22.38 110 50z" stroke="#000" stroke-width="2" fill="#fff"/><use xlink:href="#h" transform="matrix(1,0,0,1,-492.3731301157212,-110.52187411797914) translate(51.14935058593749 56.841875)"/><use xlink:href="#i" transform="matrix(1,0,0,1,-492.3731301157212,-110.52187411797914) translate(88.3974853515625 56.841875)"/><use xlink:href="#e" transform="matrix(1,0,0,1,-492.3731301157212,-110.52187411797914) translate(138.67470214843752 56.841875)"/><path d="M-266.3 90c0 27.6-49.25 50-110 50s-110-22.4-110-50 49.25-50 110-50 110 22.4 110 50z" stroke="#000" stroke-width="2" fill="#fff"/><use xlink:href="#j" transform="matrix(1,0,0,1,-486.3034151848716,40) translate(41.55736328125 56.841875)"/><use xlink:href="#k" transform="matrix(1,0,0,1,-486.3034151848716,40) translate(110.013173828125 56.841875)"/><path d="M-266.3 240.52c0 27.62-49.25 50-110 50s-110-22.38-110-50c0-27.6 49.25-50 110-50s110 22.4 110 50z" stroke="#000" stroke-width="2" fill="#fff"/><use xlink:href="#l" transform="matrix(1,0,0,1,-486.3034151848716,190.52187411797914) translate(30.62967447916663 57.41666666666667)"/><use xlink:href="#m" transform="matrix(1,0,0,1,-486.3034151848716,190.52187411797914) translate(96.2813671875 57.41666666666667)"/><path d="M-799.75-360.05v-.2A19.75 19.75 0 0 1-780-380a19.75 19.75 0 0 1 19.75 19.75A19.75 19.75 0 0 1-780-340.5a19.75 19.75 0 0 1-19.75-19.75v-.2" stroke="#000" stroke-width="2" fill="#fff"/><path d="M-820-374a6 6 0 0 1 6-6h68a6 6 0 0 1 6 6v146a6 6 0 0 1-6 6h-68a6 6 0 0 1-6-6z" fill="none"/><path d="M-780-340.5v55.3l40 63.2m-40-63.2l-40 63.2m0-98.75h80" stroke="#000" stroke-width="2" fill="none"/><use xlink:href="#n" transform="matrix(1,0,0,1,-900,-222) translate(79.30989583333334 21.52777777777778)"/><path d="M-799.75-90.57v-.2A19.75 19.75 0 0 1-780-110.52a19.75 19.75 0 0 1 19.75 19.75A19.75 19.75 0 0 1-780-71.02a19.75 19.75 0 0 1-19.75-19.75v-.2" stroke="#000" stroke-width="2" fill="#fff"/><path d="M-820-104.52a6 6 0 0 1 6-6h68a6 6 0 0 1 6 6v146a6 6 0 0 1-6 6h-68a6 6 0 0 1-6-6z" fill="none"/><path d="M-780-71.02v55.3l40 63.2m-40-63.2l-40 63.2m0-98.75h80" stroke="#000" stroke-width="2" fill="none"/><use xlink:href="#o" transform="matrix(1,0,0,1,-900,47.47812588202086) translate(82.548828125 21.52777777777778)"/><path d="M120.25 19.95v-.2A19.75 19.75 0 0 1 140 0a19.75 19.75 0 0 1 19.75 19.75A19.75 19.75 0 0 1 140 39.5a19.75 19.75 0 0 1-19.75-19.75v-.2" stroke="#000" stroke-width="2" fill="#fff"/><path d="M100 6a6 6 0 0 1 6-6h68a6 6 0 0 1 6 6v146a6 6 0 0 1-6 6h-68a6 6 0 0 1-6-6z" fill="none"/><path d="M140 39.5v55.3l40 63.2m-40-63.2L100 158m0-98.75h80" stroke="#000" stroke-width="2" fill="none"/><use xlink:href="#p" transform="matrix(1,0,0,1,20,158) translate(86.54188368055556 21.52777777777778)"/><path d="M-779-290" stroke="#3a414a" fill="none"/><path d="M-777.5-301.52l288.1-32.4M-777.47-301.53l-4.5.5" stroke="#3a414a" stroke-width="3" fill="none"/><path d="M-488.82-335.43l.9 1.35 1.03 1.38-2.37.26-.33-2.93.76-.08z" stroke="#3a414a" stroke-width=".05" fill="#3a414a"/><path d="M-777.54-300.63l292.93 73.53M-777.5-300.62l-4.4-1.1" stroke="#3a414a" stroke-width="3" fill="none"/><path d="M-481.9-227.95l-.17.15-1.63 1.6-.64.68-.67-.16.7-2.86z" stroke="#3a414a" stroke-width=".05" fill="#3a414a"/><path d="M-777.74-21.34l283.1-183.1M-777.7-21.36l-3.82 2.47" stroke="#3a414a" stroke-width="3" fill="none"/><path d="M-493.35-206.36l-.02 1.1v.62l.06 1.1-.56.35-1.6-2.46 2.16-1.4z" stroke="#3a414a" stroke-width=".05" fill="#3a414a"/><path d="M-777.5-20.73l282.64-39.58M-777.48-20.73l-4.5.62" stroke="#3a414a" stroke-width="3" fill="none"/><path d="M-493.35-61.62l-.02 1.1v.62l.05.86-1.37.2-.4-2.93 1.78-.25z" stroke="#3a414a" stroke-width=".05" fill="#3a414a"/><path d="M137.6 90.52L-263.9 240M137.56 90.54l4.25-1.6" stroke="#3a414a" stroke-width="3" fill="none"/><path d="M-263.35 241.37l-2 .75.02-.5.03-1.1v-.62l-.06-.93.98-.37z" stroke="#3a414a" stroke-width=".05" fill="#3a414a"/><path d="M-920-594a6 6 0 0 1 6-6h508a6 6 0 0 1 6 6v48a6 6 0 0 1-6 6h-508a6 6 0 0 1-6-6z" fill="none"/><use xlink:href="#q" transform="matrix(1,0,0,1,-915,-595) translate(0 37.140625)"/><use xlink:href="#r" transform="matrix(1,0,0,1,-915,-595) translate(31.078125 37.140625)"/><use xlink:href="#s" transform="matrix(1,0,0,1,-915,-595) translate(109.984375 37.140625)"/><use xlink:href="#t" transform="matrix(1,0,0,1,-915,-595) translate(177.96875 37.140625)"/><use xlink:href="#u" transform="matrix(1,0,0,1,-915,-595) translate(264.78125 37.140625)"/><path d="M-920 466a6 6 0 0 1 6-6h508a6 6 0 0 1 6 6v48a6 6 0 0 1-6 6h-508a6 6 0 0 1-6-6z" fill="none"/><use xlink:href="#q" transform="matrix(1,0,0,1,-915,465) translate(0 37.140625)"/><use xlink:href="#r" transform="matrix(1,0,0,1,-915,465) translate(31.078125 37.140625)"/><use xlink:href="#s" transform="matrix(1,0,0,1,-915,465) translate(109.984375 37.140625)"/><use xlink:href="#t" transform="matrix(1,0,0,1,-915,465) translate(177.96875 37.140625)"/><use xlink:href="#u" transform="matrix(1,0,0,1,-915,465) translate(264.78125 37.140625)"/><path d="M-586.18 589.63a6 6 0 0 1 6-6H-206a6 6 0 0 1 6 6v260a6 6 0 0 1-6 6h-374.18a6 6 0 0 1-6-6z" stroke="#000" stroke-width="2" fill="#fff"/><path d="M-586.18 626.52H-200m-386.18 114.34H-200" stroke="#000" stroke-width="2" fill="none"/><use xlink:href="#v" transform="matrix(1,0,0,1,-578.1832815955312,591.6340773965167) translate(124.92057291666667 21.58376736111111)"/><use xlink:href="#w" transform="matrix(1,0,0,1,-574.1832815955312,634.52209822985) translate(0 41.450954861111114)"/><use xlink:href="#x" transform="matrix(1,0,0,1,-574.1832815955312,634.52209822985) translate(16.471354166666664 41.450954861111114)"/><use xlink:href="#w" transform="matrix(1,0,0,1,-574.1832815955312,634.52209822985) translate(0 73.71657986111111)"/><use xlink:href="#y" transform="matrix(1,0,0,1,-574.1832815955312,634.52209822985) translate(16.471354166666664 73.71657986111111)"/><use xlink:href="#z" transform="matrix(1,0,0,1,-574.1832815955312,634.52209822985) translate(84.78732638888889 73.71657986111111)"/><use xlink:href="#w" transform="matrix(1,0,0,1,-574.1832815955312,748.8587053649251) translate(0 41.450954861111114)"/><use xlink:href="#A" transform="matrix(1,0,0,1,-574.1832815955312,748.8587053649251) translate(16.471354166666664 41.450954861111114)"/><use xlink:href="#w" transform="matrix(1,0,0,1,-574.1832815955312,748.8587053649251) translate(0 73.71657986111111)"/><use xlink:href="#B" transform="matrix(1,0,0,1,-574.1832815955312,748.8587053649251) translate(16.471354166666664 73.71657986111111)"/><path d="M-1220 986a6 6 0 0 1 6-6h362a6 6 0 0 1 6 6v160a6 6 0 0 1-6 6h-362a6 6 0 0 1-6-6z" stroke="#000" stroke-width="2" fill="#fff"/><path d="M-1220 1022.9h374m-374 64.38h374" stroke="#000" stroke-width="2" fill="none"/><use xlink:href="#C" transform="matrix(1,0,0,1,-1212,988) translate(137.37217881944446 21.58376736111111)"/><use xlink:href="#w" transform="matrix(1,0,0,1,-1208,1030.8880208333335) translate(0 32.583767361111114)"/><use xlink:href="#D" transform="matrix(1,0,0,1,-1208,1030.8880208333335) translate(16.471354166666664 32.583767361111114)"/><use xlink:href="#E" transform="matrix(1,0,0,1,-1208,1030.8880208333335) translate(146.87499999999997 32.583767361111114)"/><use xlink:href="#F" transform="matrix(1,0,0,1,-1208,1095.2760416666667) translate(0 32.583767361111114)"/><use xlink:href="#G" transform="matrix(1,0,0,1,-1208,1095.2760416666667) translate(20.95269097222222 32.583767361111114)"/><path d="M20 986a6 6 0 0 1 6-6h362a6 6 0 0 1 6 6v160a6 6 0 0 1-6 6H26a6 6 0 0 1-6-6z" stroke="#000" stroke-width="2" fill="#fff"/><path d="M20 1022.9h374m-374 64.38h374" stroke="#000" stroke-width="2" fill="none"/><g><use xlink:href="#H" transform="matrix(1,0,0,1,28,988) translate(140.31271701388889 21.58376736111111)"/></g><g><use xlink:href="#w" transform="matrix(1,0,0,1,32,1030.8880208333335) translate(0 32.583767361111114)"/><use xlink:href="#I" transform="matrix(1,0,0,1,32,1030.8880208333335) translate(16.471354166666664 32.583767361111114)"/></g><g><use xlink:href="#F" transform="matrix(1,0,0,1,32,1095.2760416666667) translate(0 32.583767361111114)"/><use xlink:href="#J" transform="matrix(1,0,0,1,32,1095.2760416666667) translate(20.95269097222222 32.583767361111114)"/></g><path d="M-586.18 1386a6 6 0 0 1 6-6h362a6 6 0 0 1 6 6v224a6 6 0 0 1-6 6h-362a6 6 0 0 1-6-6z" stroke="#000" stroke-width="2" fill="#fff"/><path d="M-586.18 1422.9h374m-374 96.64h374" stroke="#000" stroke-width="2" fill="none"/><g><use xlink:href="#K" transform="matrix(1,0,0,1,-578.1832815955312,1388) translate(136.41731770833334 21.58376736111111)"/></g><g><use xlink:href="#F" transform="matrix(1,0,0,1,-574.1832815955312,1430.8880208333333) translate(0 32.450954861111114)"/><use xlink:href="#L" transform="matrix(1,0,0,1,-574.1832815955312,1430.8880208333333) translate(20.95269097222222 32.450954861111114)"/><use xlink:href="#M" transform="matrix(1,0,0,1,-574.1832815955312,1430.8880208333333) translate(130.11067708333334 32.450954861111114)"/><use xlink:href="#w" transform="matrix(1,0,0,1,-574.1832815955312,1430.8880208333333) translate(0 64.71657986111111)"/><use xlink:href="#N" transform="matrix(1,0,0,1,-574.1832815955312,1430.8880208333333) translate(16.471354166666664 64.71657986111111)"/><use xlink:href="#z" transform="matrix(1,0,0,1,-574.1832815955312,1430.8880208333333) translate(92.84939236111111 64.71657986111111)"/></g><g><use xlink:href="#F" transform="matrix(1,0,0,1,-574.1832815955312,1527.5416666666665) translate(0 32.450954861111114)"/><use xlink:href="#O" transform="matrix(1,0,0,1,-574.1832815955312,1527.5416666666665) translate(20.95269097222222 32.450954861111114)"/><use xlink:href="#w" transform="matrix(1,0,0,1,-574.1832815955312,1527.5416666666665) translate(0 64.71657986111111)"/><use xlink:href="#P" transform="matrix(1,0,0,1,-574.1832815955312,1527.5416666666665) translate(16.471354166666664 64.71657986111111)"/></g><path d="M-1033 1154.5v4.4m0 5.87v8.8m0 5.88v8.8m0 5.87v8.8m0 5.87v8.8m0 5.87v8.8m0 5.87v8.8m0 5.88v8.8m0 5.87v8.8m0 5.86v8.8m0 5.88v8.8m0 5.87v8.82m0 5.87v8.8m0 5.86v8.8m0 5.87v8.8m0 5.88v8.8m0 5.88v8.8m0 5.87v8.8m0 5.88v8.8m0 5.87v8.8m0 5.88v8.8m0 5.87v8.8m0 5.87v8.8m0 5.88v4.4a6 6 0 0 0 6 6h4.53m6.05 0h9.07m6.05 0h9.06m6.05 0h9.08m6.04 0h9.07m6.04 0h9.07m6.05 0h9.07m6.05 0h9.07m6.04 0h9.07m6.05 0h9.06m6.05 0h9.08m6.04 0h9.07m6.04 0h9.07m6.05 0h9.07m6.05 0h9.07m6.04 0h9.07m6.05 0h9.07m6.04 0h9.08m6.04 0h9.07m6.04 0h9.07m6.05 0h9.07m6.05 0h9.07m6.04 0h9.07m6.05 0h9.06m6.05 0h9.08m6.05 0h9.06m6.04 0h9.07m6.05 0h9.07m6.05 0h9.07m6.04 0h4.54" stroke="#3a414a" stroke-width="3" fill="none"/><path d="M-1031.52 1154.54h-2.95V1153h2.95zM-587.18 1499.47h-1.54v-2.94h1.54z" stroke="#3a414a" stroke-width=".05" fill="#3a414a"/><path d="M-209.68 1498h4.56m6.1 0h9.1m6.1 0h9.12m6.1 0h9.1m6.1 0h9.12m6.1 0h9.1m6.1 0h9.12m6.1 0h9.12m6.08 0h9.13m6.08 0h9.13m6.08 0H-53m6.07 0h9.13m6.08 0h9.13m6.1 0h9.12m6.08 0h9.13m6.08 0h9.14m6.08 0h9.13m6.08 0h9.13m6.08 0h9.13m6.08 0h9.13m6.1 0h9.1m6.1 0h9.12m6.1 0h9.1m6.1 0h9.12m6.1 0h9.1m6.1 0h9.12m6.1 0h9.1m6.1 0H201a6 6 0 0 0 6-6v-4.4m0-5.87v-8.8m0-5.88v-8.8m0-5.87v-8.8m0-5.87v-8.8m0-5.87v-8.8m0-5.87v-8.8m0-5.88v-8.8m0-5.87v-8.8m0-5.86v-8.8m0-5.88v-8.8m0-5.87v-8.82m0-5.87v-8.8m0-5.86v-8.8m0-5.87v-8.8m0-5.88v-8.8m0-5.88v-8.8m0-5.87v-8.8m0-5.88v-8.8m0-5.87v-8.8m0-5.88v-8.8m0-5.87v-8.8m0-5.87v-8.8m0-5.88v-4.4" stroke="#3a414a" stroke-width="3" fill="none"/><path d="M-209.64 1499.47h-1.54v-2.94h1.54zM208.48 1154.54h-2.95V1153h2.95z" stroke="#3a414a" stroke-width=".05" fill="#3a414a"/><path d="M207 979v-4.47m0-5.96v-8.95m0-5.96v-8.94m0-5.96v-8.94m0-5.96v-8.95m0-5.95V900m0-5.95v-8.94m0-5.96v-8.94m0-5.96v-8.94m0-5.96v-8.95m0-5.97v-8.94m0-5.97v-8.94m0-5.98v-8.94m0-5.96v-8.94m0-5.96v-8.95m0-5.96v-8.93m0-5.96v-8.93m0-5.97v-4.47a6 6 0 0 0-6-6h-4.43m-5.9 0h-8.86m-5.9 0h-8.85m-5.9 0h-8.86m-5.9 0h-8.86m-5.9 0h-8.86m-5.9 0H108m-5.9 0h-8.86m-5.9 0H78.5m-5.9 0h-8.86m-5.9 0h-8.86m-5.9 0h-8.86m-5.9 0h-8.86m-5.9 0H4.7m-5.9 0h-8.86m-5.9 0h-8.86m-5.9 0h-8.86m-5.9 0h-8.86m-5.9 0h-8.85m-5.9 0h-8.85m-5.9 0h-8.86m-5.92 0h-8.85m-5.9 0h-8.86m-5.9 0h-8.86m-5.9 0h-8.85m-5.9 0h-8.86m-5.9 0h-8.87m-5.9 0h-4.43M222 977.5h-30" stroke="#3a414a" stroke-width="3" fill="none"/><path d="M-197.46 721.1H-199v-2.94h1.54z" stroke="#3a414a" stroke-width=".05" fill="#3a414a"/><path d="M-588.68 719.63h-4.54m-6.04 0h-9.07m-6.05 0h-9.07m-6.04 0h-9.06m-6.05 0h-9.07m-6.05 0h-9.07m-6.04 0h-9.06m-6.05 0h-9.07m-6.04 0h-9.07m-6.05 0h-9.07m-6.04 0h-9.06m-6.05 0h-9.08m-6.04 0h-9.07m-6.03 0h-9.07m-6.05 0h-9.07m-6.04 0h-9.07m-6.05 0h-9.07m-6.04 0h-9.06m-6.05 0h-9.08m-6.04 0h-9.07m-6.04 0h-9.06m-6.05 0h-9.07m-6.04 0h-9.07m-6.05 0h-9.07m-6.04 0h-9.06m-6.05 0h-9.08m-6.04 0h-9.07m-6.04 0h-9.06m-6.05 0h-9.07m-6.05 0h-4.53a6 6 0 0 0-6 6v4.45m0 5.92v8.9m0 5.92v8.9m0 5.92v8.9m0 5.9v8.9m0 5.93v8.9m0 5.9v8.9m0 5.93v8.9m0 5.92v8.88m0 5.93v8.9m0 5.92v8.88m0 5.93v8.9m0 5.92v8.9m0 5.9v8.9m0 5.93v8.9m0 5.92v8.9m0 5.92v8.9m0 5.9v4.46" stroke="#3a414a" stroke-width="3" fill="none"/><path d="M-587.18 721.1h-1.54v-2.94h1.54zM-1031.52 979h-2.95v-1.54h2.95z" stroke="#3a414a" stroke-width=".05" fill="#3a414a"/><path d="M-1000 1446a6 6 0 0 1 6-6h168a6 6 0 0 1 6 6v39.6a6 6 0 0 1-6 6h-168a6 6 0 0 1-6-6z" fill="none"/><g><use xlink:href="#Q" transform="matrix(1,0,0,1,-989,1451) translate(24.444444444444446 23.89214409722222)"/><use xlink:href="#R" transform="matrix(1,0,0,1,-989,1451) translate(116.767578125 23.89214409722222)"/></g><path d="M0 1446a6 6 0 0 1 6-6h228a6 6 0 0 1 6 6v39.6a6 6 0 0 1-6 6H6a6 6 0 0 1-6-6z" fill="none"/><g><use xlink:href="#S" transform="matrix(1,0,0,1,11,1451) translate(24.444444444444446 23.89214409722222)"/><use xlink:href="#R" transform="matrix(1,0,0,1,11,1451) translate(130.8637152777778 23.89214409722222)"/></g><defs><path d="M657 26c-323 0-524-166-541-416h195c15 169 171 246 346 246 202 0 356-106 356-265 5-203-294-238-475-293-239-73-380-191-380-389 0-252 224-419 512-419 294 0 499 171 508 396H992c-17-145-151-228-328-228-193 0-321 102-321 242 0 156 175 211 284 241l149 41c160 44 422 134 422 412 0 244-197 432-541 432" id="T"/><path d="M158 0v-1490h180v865h22l478-493h223L593-638 1096 0H865L456-523 338-412V0H158" id="U"/><path d="M158 0v-1118h180V0H158zm91-1301c-68 0-125-53-125-119s57-119 125-119c69 0 126 53 126 119s-57 119-126 119" id="V"/><path d="M338-1490V0H158v-1490h180" id="W"/><path d="M140 405l46-156c120 36 205 19 263-150l32-93L54-1118h197c107 313 237 620 324 950 87-331 219-637 326-950h196L606 167c-68 178-176 259-334 259-64 0-113-12-132-21" id="X"/><path d="M338-670V0H158v-1118h173l1 207c72-158 192-221 342-221 226 0 378 139 378 422V0H872v-695c0-172-96-275-252-275-161 0-282 109-282 300" id="Y"/><path d="M613 24c-304 0-509-231-509-576 0-350 205-580 509-580 216 0 392 114 453 309l-173 49c-33-115-133-197-280-197-223 0-326 196-326 419 0 220 103 415 326 415 150 0 252-85 285-206l172 49C1010-95 832 24 613 24" id="Z"/><g id="a"><use transform="matrix(0.010850694444444444,0,0,0.010850694444444444,0,0)" xlink:href="#T"/><use transform="matrix(0.010850694444444444,0,0,0.010850694444444444,14.2578125,0)" xlink:href="#U"/><use transform="matrix(0.010850694444444444,0,0,0.010850694444444444,26.45399305555556,0)" xlink:href="#V"/><use transform="matrix(0.010850694444444444,0,0,0.010850694444444444,31.8359375,0)" xlink:href="#W"/><use transform="matrix(0.010850694444444444,0,0,0.010850694444444444,37.21788194444444,0)" xlink:href="#W"/><use transform="matrix(0.010850694444444444,0,0,0.010850694444444444,42.599826388888886,0)" xlink:href="#T"/><use transform="matrix(0.010850694444444444,0,0,0.010850694444444444,56.857638888888886,0)" xlink:href="#X"/><use transform="matrix(0.010850694444444444,0,0,0.010850694444444444,69.34678819444444,0)" xlink:href="#Y"/><use transform="matrix(0.010850694444444444,0,0,0.010850694444444444,82.47612847222221,0)" xlink:href="#Z"/></g><path d="M158 418v-1536h174v179h20c37-59 106-193 324-193 279 0 474 222 474 576 0 356-194 580-473 580-213 0-288-135-325-197h-14v591H158zm492-555c209 0 317-186 317-421 0-232-105-413-317-413-206 0-314 166-314 413 0 249 111 421 314 421" id="aa"/><path d="M471 26C259 26 90-98 90-318c0-256 228-303 435-329 202-27 287-16 287-108 0-139-79-219-234-219-161 0-248 86-283 164l-173-57c86-203 278-265 451-265 150 0 419 46 419 395V0H815v-152h-12C765-73 660 26 471 26zm31-159c199 0 310-134 310-271v-155c-30 35-226 55-295 64-131 17-246 59-246 186 0 116 97 176 231 176" id="ab"/><path d="M598-1118v154H368v674c0 100 37 144 132 144 23 0 62-6 92-12L629-6c-37 13-88 20-134 20-193 0-307-107-307-290v-688H20v-154h168v-266h180v266h230" id="ac"/><path d="M678-1118v154H420V0H240v-964H20v-154h220v-149c0-194 155-293 318-293 85 0 141 18 168 30l-50 154c-19-6-47-17-97-17-111 0-159 58-159 166v109h258" id="ad"/><path d="M613 24c-304 0-509-231-509-576 0-350 205-580 509-580 305 0 511 230 511 580 0 345-206 576-511 576zm0-161c226 0 329-195 329-415 0-222-103-419-329-419-223 0-326 196-326 419 0 220 103 415 326 415" id="ae"/><path d="M158 0v-1118h174v172h12c41-113 157-188 290-188 26 0 70 2 91 3v181c-11-2-60-10-108-10-161 0-279 109-279 260V0H158" id="af"/><path d="M158 0v-1118h175l1 205c55-151 181-225 313-225 147 0 245 90 285 228 53-141 190-228 352-228 194 0 352 125 352 384V0h-181v-749c0-161-105-225-225-225-151 0-243 103-243 244V0H807v-767c0-124-93-207-219-207-131 0-250 92-250 270V0H158" id="ag"/><g id="b"><use transform="matrix(0.010850694444444444,0,0,0.010850694444444444,0,0)" xlink:href="#aa"/><use transform="matrix(0.010850694444444444,0,0,0.010850694444444444,13.606770833333332,0)" xlink:href="#W"/><use transform="matrix(0.010850694444444444,0,0,0.010850694444444444,18.98871527777778,0)" xlink:href="#ab"/><use transform="matrix(0.010850694444444444,0,0,0.010850694444444444,31.46701388888889,0)" xlink:href="#ac"/><use transform="matrix(0.010850694444444444,0,0,0.010850694444444444,38.19444444444444,0)" xlink:href="#ad"/><use transform="matrix(0.010850694444444444,0,0,0.010850694444444444,45.76822916666667,0)" xlink:href="#ae"/><use transform="matrix(0.010850694444444444,0,0,0.010850694444444444,59.09288194444445,0)" xlink:href="#af"/><use transform="matrix(0.010850694444444444,0,0,0.010850694444444444,67.80598958333334,0)" xlink:href="#ag"/></g><path d="M628 24c-324 0-524-230-524-574 0-343 198-582 503-582 237 0 487 146 487 559v75H286c9 234 145 362 343 362 132 0 231-58 273-172l174 48C1024-91 857 24 628 24zM287-650h624c-17-190-120-322-304-322-192 0-309 151-320 322" id="ah"/><path d="M338-670V0H158v-1490h180v566c73-149 190-208 336-208 226 0 379 139 379 422V0H872v-695c0-172-96-275-252-275-161 0-282 109-282 300" id="ai"/><g id="c"><use transform="matrix(0.008173828125000001,0,0,0.008173828125000001,0,0)" xlink:href="#T"/><use transform="matrix(0.008173828125000001,0,0,0.008173828125000001,10.740410156250002,0)" xlink:href="#ah"/><use transform="matrix(0.008173828125000001,0,0,0.008173828125000001,20.663437499999997,0)" xlink:href="#ab"/><use transform="matrix(0.008173828125000001,0,0,0.008173828125000001,30.06333984375,0)" xlink:href="#af"/><use transform="matrix(0.008173828125000001,0,0,0.008173828125000001,36.087451171875,0)" xlink:href="#Z"/><use transform="matrix(0.008173828125000001,0,0,0.008173828125000001,45.650830078125004,0)" xlink:href="#ai"/></g><g id="d"><use transform="matrix(0.008173828125000001,0,0,0.008173828125000001,0,0)" xlink:href="#ad"/><use transform="matrix(0.008173828125000001,0,0,0.008173828125000001,5.705332031250001,0)" xlink:href="#ae"/><use transform="matrix(0.008173828125000001,0,0,0.008173828125000001,15.742792968750003,0)" xlink:href="#af"/></g><path d="M538 24C308 24 148-78 108-271l171-41c32 123 123 178 257 178 156 0 256-77 256-169 0-77-54-128-164-154l-186-44c-203-48-300-148-300-305 0-192 176-326 414-326 230 0 351 112 402 269l-163 42c-31-80-94-158-238-158-133 0-233 69-233 162 0 83 57 129 188 160l169 40c203 48 298 149 298 302 0 196-179 339-441 339" id="aj"/><g id="e"><use transform="matrix(0.008173828125000001,0,0,0.008173828125000001,0,0)" xlink:href="#aj"/><use transform="matrix(0.008173828125000001,0,0,0.008173828125000001,8.835908203125001,0)" xlink:href="#U"/><use transform="matrix(0.008173828125000001,0,0,0.008173828125000001,18.023291015625002,0)" xlink:href="#V"/><use transform="matrix(0.008173828125000001,0,0,0.008173828125000001,22.077509765625003,0)" xlink:href="#W"/><use transform="matrix(0.008173828125000001,0,0,0.008173828125000001,26.131728515625003,0)" xlink:href="#W"/></g><path d="M180 0v-1490h528c311 0 458 177 458 395 0 191-114 278-244 313v14c139 9 302 137 302 371 0 225-148 397-499 397H180zm190-168h350c232 0 321-102 321-231 0-149-120-277-311-277H370v508zm0-668h328c160 0 286-101 286-255 0-129-87-231-280-231H370v486" id="ak"/><g id="f"><use transform="matrix(0.008173828125000001,0,0,0.008173828125000001,0,0)" xlink:href="#ak"/><use transform="matrix(0.008173828125000001,0,0,0.008173828125000001,10.952929687500001,0)" xlink:href="#ae"/><use transform="matrix(0.008173828125000001,0,0,0.008173828125000001,20.990390625000003,0)" xlink:href="#ae"/><use transform="matrix(0.008173828125000001,0,0,0.008173828125000001,31.027851562500004,0)" xlink:href="#U"/></g><g id="g"><use transform="matrix(0.008173828125000001,0,0,0.008173828125000001,0,0)" xlink:href="#T"/><use transform="matrix(0.008173828125000001,0,0,0.008173828125000001,10.740410156250002,0)" xlink:href="#ah"/><use transform="matrix(0.008173828125000001,0,0,0.008173828125000001,20.499960937500003,0)" xlink:href="#aj"/><use transform="matrix(0.008173828125000001,0,0,0.008173828125000001,29.335869140625004,0)" xlink:href="#aj"/><use transform="matrix(0.008173828125000001,0,0,0.008173828125000001,38.17177734375001,0)" xlink:href="#V"/><use transform="matrix(0.008173828125000001,0,0,0.008173828125000001,42.22599609375001,0)" xlink:href="#ae"/><use transform="matrix(0.008173828125000001,0,0,0.008173828125000001,52.26345703125001,0)" xlink:href="#Y"/></g><path d="M180 0v-1490h190v1322h690V0H180" id="al"/><g id="h"><use transform="matrix(0.008173828125000001,0,0,0.008173828125000001,0,0)" xlink:href="#al"/><use transform="matrix(0.008173828125000001,0,0,0.008173828125000001,9.465292968750001,0)" xlink:href="#V"/><use transform="matrix(0.008173828125000001,0,0,0.008173828125000001,13.519511718750001,0)" xlink:href="#aj"/><use transform="matrix(0.008173828125000001,0,0,0.008173828125000001,22.355419921875004,0)" xlink:href="#ac"/></g><path d="M98-1322v-168h1126v168H757V0H567v-1322H98" id="am"/><path d="M577 24c-279 0-473-224-473-580 0-354 195-576 474-576 218 0 287 134 324 193h14v-551h180V0H922v-173h-20C865-111 790 24 577 24zm27-161c203 0 314-172 314-421 0-247-108-413-314-413-212 0-317 181-317 413 0 235 108 421 317 421" id="an"/><g id="i"><use transform="matrix(0.008173828125000001,0,0,0.008173828125000001,0,0)" xlink:href="#am"/><use transform="matrix(0.008173828125000001,0,0,0.008173828125000001,9.857636718750001,0)" xlink:href="#af"/><use transform="matrix(0.008173828125000001,0,0,0.008173828125000001,16.159658203125,0)" xlink:href="#ab"/><use transform="matrix(0.008173828125000001,0,0,0.008173828125000001,25.559560546875005,0)" xlink:href="#an"/><use transform="matrix(0.008173828125000001,0,0,0.008173828125000001,35.80954101562501,0)" xlink:href="#ah"/></g><path d="M180 0v-1490h510c348 0 508 209 508 474 0 266-160 477-507 477H370V0H180zm190-706h312c236 0 327-133 327-310 0-176-91-307-329-307H370v617" id="ao"/><g id="j"><use transform="matrix(0.008173828125000001,0,0,0.008173828125000001,0,0)" xlink:href="#ao"/><use transform="matrix(0.008173828125000001,0,0,0.008173828125000001,10.691367187500001,0)" xlink:href="#af"/><use transform="matrix(0.008173828125000001,0,0,0.008173828125000001,16.715478515625,0)" xlink:href="#ae"/><use transform="matrix(0.008173828125000001,0,0,0.008173828125000001,26.752939453125002,0)" xlink:href="#Z"/><use transform="matrix(0.008173828125000001,0,0,0.008173828125000001,36.316318359375,0)" xlink:href="#ah"/><use transform="matrix(0.008173828125000001,0,0,0.008173828125000001,46.075869140625,0)" xlink:href="#aj"/><use transform="matrix(0.008173828125000001,0,0,0.008173828125000001,54.91177734375,0)" xlink:href="#aj"/></g><g id="k"><use transform="matrix(0.008173828125000001,0,0,0.008173828125000001,0,0)" xlink:href="#aa"/><use transform="matrix(0.008173828125000001,0,0,0.008173828125000001,10.413457031250001,0)" xlink:href="#ab"/><use transform="matrix(0.008173828125000001,0,0,0.008173828125000001,19.568144531250002,0)" xlink:href="#X"/><use transform="matrix(0.008173828125000001,0,0,0.008173828125000001,28.649267578125006,0)" xlink:href="#ah"/><use transform="matrix(0.008173828125000001,0,0,0.008173828125000001,38.408818359375005,0)" xlink:href="#ag"/><use transform="matrix(0.008173828125000001,0,0,0.008173828125000001,53.072666015625,0)" xlink:href="#Y"/><use transform="matrix(0.008173828125000001,0,0,0.008173828125000001,62.962998046875,0)" xlink:href="#ac"/></g><g id="l"><use transform="matrix(0.008463541666666668,0,0,0.008463541666666668,0,0)" xlink:href="#V"/><use transform="matrix(0.008463541666666668,0,0,0.008463541666666668,4.197916666666667,0)" xlink:href="#an"/><use transform="matrix(0.008463541666666668,0,0,0.008463541666666668,14.811197916666668,0)" xlink:href="#ah"/><use transform="matrix(0.008463541666666668,0,0,0.008463541666666668,24.91666666666667,0)" xlink:href="#Y"/><use transform="matrix(0.008463541666666668,0,0,0.008463541666666668,35.15755208333334,0)" xlink:href="#ac"/><use transform="matrix(0.008463541666666668,0,0,0.008463541666666668,40.828125000000014,0)" xlink:href="#V"/><use transform="matrix(0.008463541666666668,0,0,0.008463541666666668,45.02604166666668,0)" xlink:href="#ac"/><use transform="matrix(0.008463541666666668,0,0,0.008463541666666668,51.035156250000014,0)" xlink:href="#X"/></g><path d="M600 0L52-1490h200c166 485 304 806 458 1336 156-533 285-846 449-1336h202L819 0H600" id="ap"/><g id="m"><use transform="matrix(0.008463541666666668,0,0,0.008463541666666668,0,0)" xlink:href="#ap"/><use transform="matrix(0.008463541666666668,0,0,0.008463541666666668,11.078776041666668,0)" xlink:href="#ah"/><use transform="matrix(0.008463541666666668,0,0,0.008463541666666668,21.184244791666668,0)" xlink:href="#af"/><use transform="matrix(0.008463541666666668,0,0,0.008463541666666668,27.980468750000004,0)" xlink:href="#V"/><use transform="matrix(0.008463541666666668,0,0,0.008463541666666668,32.17838541666667,0)" xlink:href="#ad"/><use transform="matrix(0.008463541666666668,0,0,0.008463541666666668,38.59375000000001,0)" xlink:href="#V"/><use transform="matrix(0.008463541666666668,0,0,0.008463541666666668,42.79166666666667,0)" xlink:href="#Z"/><use transform="matrix(0.008463541666666668,0,0,0.008463541666666668,52.86328125000001,0)" xlink:href="#ab"/><use transform="matrix(0.008463541666666668,0,0,0.008463541666666668,62.59635416666668,0)" xlink:href="#ac"/><use transform="matrix(0.008463541666666668,0,0,0.008463541666666668,68.26692708333334,0)" xlink:href="#V"/><use transform="matrix(0.008463541666666668,0,0,0.008463541666666668,72.46484375000001,0)" xlink:href="#ae"/><use transform="matrix(0.008463541666666668,0,0,0.008463541666666668,82.85807291666667,0)" xlink:href="#Y"/></g><g id="n"><use transform="matrix(0.010850694444444444,0,0,0.010850694444444444,0,0)" xlink:href="#al"/><use transform="matrix(0.010850694444444444,0,0,0.010850694444444444,12.565104166666666,0)" xlink:href="#ah"/><use transform="matrix(0.010850694444444444,0,0,0.010850694444444444,25.73784722222222,0)" xlink:href="#ab"/><use transform="matrix(0.010850694444444444,0,0,0.010850694444444444,38.21614583333333,0)" xlink:href="#af"/><use transform="matrix(0.010850694444444444,0,0,0.010850694444444444,46.92925347222221,0)" xlink:href="#Y"/><use transform="matrix(0.010850694444444444,0,0,0.010850694444444444,60.058593749999986,0)" xlink:href="#ah"/><use transform="matrix(0.010850694444444444,0,0,0.010850694444444444,73.01432291666666,0)" xlink:href="#af"/></g><path d="M180 0v-1490h270l367 940c28 72 75 218 110 339 35-117 81-264 110-339l362-940h271V0h-187c2-448-5-837 7-1287-157 497-311 829-483 1287H842C666-458 514-784 354-1284c12 438 5 843 7 1284H180" id="aq"/><g id="o"><use transform="matrix(0.010850694444444444,0,0,0.010850694444444444,0,0)" xlink:href="#aq"/><use transform="matrix(0.010850694444444444,0,0,0.010850694444444444,20.07378472222222,0)" xlink:href="#ah"/><use transform="matrix(0.010850694444444444,0,0,0.010850694444444444,33.029513888888886,0)" xlink:href="#Y"/><use transform="matrix(0.010850694444444444,0,0,0.010850694444444444,46.158854166666664,0)" xlink:href="#ac"/><use transform="matrix(0.010850694444444444,0,0,0.010850694444444444,53.21180555555556,0)" xlink:href="#ae"/><use transform="matrix(0.010850694444444444,0,0,0.010850694444444444,66.53645833333333,0)" xlink:href="#af"/></g><path d="M52 0l541-1490h220L1361 0h-200l-149-416H398L254 0H52zm404-582h497c-103-290-145-390-251-756-108 377-145 460-246 756" id="ar"/><g id="p"><use transform="matrix(0.010850694444444444,0,0,0.010850694444444444,0,0)" xlink:href="#ar"/><use transform="matrix(0.010850694444444444,0,0,0.010850694444444444,15.33203125,0)" xlink:href="#an"/><use transform="matrix(0.010850694444444444,0,0,0.010850694444444444,28.938802083333332,0)" xlink:href="#ag"/><use transform="matrix(0.010850694444444444,0,0,0.010850694444444444,48.404947916666664,0)" xlink:href="#V"/><use transform="matrix(0.010850694444444444,0,0,0.010850694444444444,53.78689236111111,0)" xlink:href="#Y"/></g><path fill="#1e293b" d="M749-1490V0H444v-1221h-10L93-980v-279l329-231h327" id="as"/><path fill="#1e293b" d="M342 19c-98 0-173-75-173-172s75-172 173-172 173 75 173 172S440 19 342 19" id="at"/><g id="q"><use transform="matrix(0.015625,0,0,0.015625,0,0)" xlink:href="#as"/><use transform="matrix(0.015625,0,0,0.015625,13.796875,0)" xlink:href="#at"/></g><path fill="#1e293b" d="M750 21c-371 0-615-218-615-544v-967h305v942c0 174 123 299 310 299s309-125 309-299v-942h306v967c0 326-247 544-615 544" id="au"/><path fill="#1e293b" d="M135 0v-1490h468l242 684c30 94 76 293 111 455 34-161 80-360 110-455l238-684h470V0h-307c0-447-3-765 11-1227-122 503-246 788-395 1227H826C676-435 552-717 427-1215c15 453 11 775 11 1215H135" id="av"/><path fill="#1e293b" d="M135 0v-1490h305v1237h643V0H135" id="aw"/><g id="r"><use transform="matrix(0.015625,0,0,0.015625,0,0)" xlink:href="#au"/><use transform="matrix(0.015625,0,0,0.015625,23.421875,0)" xlink:href="#av"/><use transform="matrix(0.015625,0,0,0.015625,53.234375,0)" xlink:href="#aw"/></g><path fill="#1e293b" d="M572 22C302 22 117-98 78-306l279-48c29 105 101 156 224 156 114 0 185-48 185-115 0-118-228-130-337-155-215-49-322-150-322-317 0-215 187-347 470-347 265 0 424 116 466 298l-266 47c-24-76-87-130-196-130-98 0-174 46-174 113 0 56 38 95 144 117l201 40c216 44 320 143 320 302 0 220-207 367-500 367" id="ax"/><path fill="#1e293b" d="M633 22C291 22 81-200 81-553c0-345 210-579 537-579 292 0 525 185 525 567v84H378c7 183 109 277 260 277 105 0 184-46 216-132l272 51C1071-99 893 22 633 22zM380-669h474c-15-146-94-237-233-237-143 0-229 99-241 237" id="ay"/><g id="s"><use transform="matrix(0.015625,0,0,0.015625,0,0)" xlink:href="#au"/><use transform="matrix(0.015625,0,0,0.015625,23.421875,0)" xlink:href="#ax"/><use transform="matrix(0.015625,0,0,0.015625,41.34375,0)" xlink:href="#ay"/></g><path fill="#1e293b" d="M786 20C389 20 94-260 94-744c0-487 299-766 692-766 339 0 597 194 641 529h-309c-28-162-156-258-326-258-233 0-388 179-388 495 0 323 157 493 387 493 170 0 298-97 328-259h309c-34 277-266 530-642 530" id="az"/><path fill="#1e293b" d="M440 22C227 22 68-92 68-313c0-250 202-322 422-343 195-21 271-24 271-105 0-95-63-149-175-149-116 0-187 57-211 129l-275-46c57-194 237-305 487-305 240 0 474 108 474 379V0H777v-155h-10C713-51 605 22 440 22zm85-211c140 0 238-93 238-211v-121c-37 26-156 42-222 51-111 16-185 59-185 149 0 87 70 132 169 132" id="aA"/><g id="t"><use transform="matrix(0.015625,0,0,0.015625,0,0)" xlink:href="#az"/><use transform="matrix(0.015625,0,0,0.015625,23.671875,0)" xlink:href="#aA"/><use transform="matrix(0.015625,0,0,0.015625,42.25,0)" xlink:href="#ax"/><use transform="matrix(0.015625,0,0,0.015625,60.171875,0)" xlink:href="#ay"/></g><path fill="#1e293b" d="M659 0H135v-1490h529c448 0 721 280 721 744 0 466-273 746-726 746zM440-263h204c287 0 437-148 437-483 0-333-150-481-435-481H440v964" id="aB"/><path fill="#1e293b" d="M128 0v-1118h300V0H128zm150-1264c-91 0-165-68-165-154 0-85 74-154 165-154 90 0 165 69 165 154 0 86-75 154-165 154" id="aC"/><path fill="#1e293b" d="M625 442c-280 0-454-114-503-274l258-72c28 63 97 128 243 128 153 0 246-69 246-216v-206h-23C805-108 717-16 536-16 284-16 81-191 81-561c0-378 208-571 456-571 188 0 280 113 321 202h13v-188h295V-9c0 303-226 451-541 451zm5-686c153 0 240-119 240-319 0-198-86-329-240-329-158 0-241 137-241 329 0 195 85 319 241 319" id="aD"/><path fill="#1e293b" d="M128 0v-1118h290v195h12c54-169 184-238 367-200v268c-27-8-86-15-130-15-138 0-239 95-239 234V0H128" id="aE"/><path fill="#1e293b" d="M128 0v-1118h278l12 217c60-163 185-234 319-234 143 0 236 81 288 251 63-172 205-251 359-251 205 0 357 138 357 381V0h-301v-697c0-126-76-187-177-187-114 0-184 79-184 196V0H789v-705c0-109-72-179-174-179-106 0-187 74-187 208V0H128" id="aF"/><g id="u"><use transform="matrix(0.015625,0,0,0.015625,0,0)" xlink:href="#aB"/><use transform="matrix(0.015625,0,0,0.015625,23.109375,0)" xlink:href="#aC"/><use transform="matrix(0.015625,0,0,0.015625,31.78125,0)" xlink:href="#aA"/><use transform="matrix(0.015625,0,0,0.015625,50.359375,0)" xlink:href="#aD"/><use transform="matrix(0.015625,0,0,0.015625,70.578125,0)" xlink:href="#aE"/><use transform="matrix(0.015625,0,0,0.015625,83.171875,0)" xlink:href="#aA"/><use transform="matrix(0.015625,0,0,0.015625,101.75,0)" xlink:href="#aF"/></g><path d="M750 21c-371 0-615-218-615-544v-967h305v942c0 174 123 299 310 299s309-125 309-299v-942h306v967c0 326-247 544-615 544" id="aG"/><path d="M572 22C302 22 117-98 78-306l279-48c29 105 101 156 224 156 114 0 185-48 185-115 0-118-228-130-337-155-215-49-322-150-322-317 0-215 187-347 470-347 265 0 424 116 466 298l-266 47c-24-76-87-130-196-130-98 0-174 46-174 113 0 56 38 95 144 117l201 40c216 44 320 143 320 302 0 220-207 367-500 367" id="aH"/><path d="M633 22C291 22 81-200 81-553c0-345 210-579 537-579 292 0 525 185 525 567v84H378c7 183 109 277 260 277 105 0 184-46 216-132l272 51C1071-99 893 22 633 22zM380-669h474c-15-146-94-237-233-237-143 0-229 99-241 237" id="aI"/><path d="M128 0v-1118h290v195h12c54-169 184-238 367-200v268c-27-8-86-15-130-15-138 0-239 95-239 234V0H128" id="aJ"/><path d="M169-607c0-330 107-732 258-974h279c-145 311-231 674-231 974 0 262 67 512 231 886H427C258-1 169-307 169-607" id="aK"/><path d="M135 0v-1490h591c327 0 492 160 492 383 0 177-115 286-268 320v15c168 8 326 140 326 361 0 236-176 411-512 411H135zm305-251h264c179 0 258-76 258-189 0-125-97-215-250-215H440v404zm0-613h241c131 0 228-74 228-194 0-109-79-183-222-183H440v377" id="aL"/><path d="M440 22C227 22 68-92 68-313c0-250 202-322 422-343 195-21 271-24 271-105 0-95-63-149-175-149-116 0-187 57-211 129l-275-46c57-194 237-305 487-305 240 0 474 108 474 379V0H777v-155h-10C713-51 605 22 440 22zm85-211c140 0 238-93 238-211v-121c-37 26-156 42-222 51-111 16-185 59-185 149 0 87 70 132 169 132" id="aM"/><path d="M67 279c166-379 230-627 230-886 0-300-86-663-230-974h278c151 241 258 644 258 974 0 302-90 608-258 886H67" id="aN"/><g id="v"><use transform="matrix(0.010850694444444444,0,0,0.010850694444444444,0,0)" xlink:href="#aG"/><use transform="matrix(0.010850694444444444,0,0,0.010850694444444444,16.26519097222222,0)" xlink:href="#aH"/><use transform="matrix(0.010850694444444444,0,0,0.010850694444444444,28.7109375,0)" xlink:href="#aI"/><use transform="matrix(0.010850694444444444,0,0,0.010850694444444444,41.94878472222222,0)" xlink:href="#aJ"/><use transform="matrix(0.010850694444444444,0,0,0.010850694444444444,50.998263888888886,0)" xlink:href="#aK"/><use transform="matrix(0.010850694444444444,0,0,0.010850694444444444,59.77647569444444,0)" xlink:href="#aL"/><use transform="matrix(0.010850694444444444,0,0,0.010850694444444444,74.47916666666666,0)" xlink:href="#aM"/><use transform="matrix(0.010850694444444444,0,0,0.010850694444444444,87.3806423611111,0)" xlink:href="#aH"/><use transform="matrix(0.010850694444444444,0,0,0.010850694444444444,99.82638888888887,0)" xlink:href="#aI"/><use transform="matrix(0.010850694444444444,0,0,0.010850694444444444,112.78211805555556,0)" xlink:href="#aN"/></g><path d="M798-719v166H144v-166h654" id="aO"/><use transform="matrix(0.010850694444444444,0,0,0.010850694444444444,0,0)" xlink:href="#aO" id="w"/><path d="M295 13c-75 0-135-60-135-135s60-135 135-135 135 60 135 135S370 13 295 13zm0-809c-75 0-135-60-135-135s60-135 135-135 135 60 135 135-60 135-135 135" id="aP"/><g id="x"><use transform="matrix(0.010850694444444444,0,0,0.010850694444444444,0,0)" xlink:href="#V"/><use transform="matrix(0.010850694444444444,0,0,0.010850694444444444,5.381944444444445,0)" xlink:href="#an"/><use transform="matrix(0.010850694444444444,0,0,0.010850694444444444,18.98871527777778,0)" xlink:href="#aP"/><use transform="matrix(0.010850694444444444,0,0,0.010850694444444444,25.390625,0)" xlink:href="#V"/><use transform="matrix(0.010850694444444444,0,0,0.010850694444444444,30.772569444444443,0)" xlink:href="#Y"/><use transform="matrix(0.010850694444444444,0,0,0.010850694444444444,43.90190972222222,0)" xlink:href="#ac"/></g><g id="y"><use transform="matrix(0.010850694444444444,0,0,0.010850694444444444,0,0)" xlink:href="#ah"/><use transform="matrix(0.010850694444444444,0,0,0.010850694444444444,12.955729166666666,0)" xlink:href="#ag"/><use transform="matrix(0.010850694444444444,0,0,0.010850694444444444,32.421875,0)" xlink:href="#ab"/><use transform="matrix(0.010850694444444444,0,0,0.010850694444444444,44.90017361111111,0)" xlink:href="#V"/><use transform="matrix(0.010850694444444444,0,0,0.010850694444444444,50.28211805555556,0)" xlink:href="#W"/><use transform="matrix(0.010850694444444444,0,0,0.010850694444444444,55.6640625,0)" xlink:href="#aP"/></g><path d="M611 442c-248 0-391-105-460-228l146-94c47 65 117 165 314 165 178 0 307-82 307-266v-224h-17C863-141 792-18 576-18c-268 0-472-195-472-546 0-346 197-568 476-568 216 0 288 133 326 193h17v-179h175V29c0 289-215 413-487 413zm-5-620c203 0 314-146 314-390 0-237-108-403-314-403-213 0-319 180-319 403 0 230 109 390 319 390" id="aQ"/><g id="z"><use transform="matrix(0.010850694444444444,0,0,0.010850694444444444,0,0)" xlink:href="#aj"/><use transform="matrix(0.010850694444444444,0,0,0.010850694444444444,11.729600694444445,0)" xlink:href="#ac"/><use transform="matrix(0.010850694444444444,0,0,0.010850694444444444,18.99956597222222,0)" xlink:href="#af"/><use transform="matrix(0.010850694444444444,0,0,0.010850694444444444,27.712673611111104,0)" xlink:href="#V"/><use transform="matrix(0.010850694444444444,0,0,0.010850694444444444,33.09461805555555,0)" xlink:href="#Y"/><use transform="matrix(0.010850694444444444,0,0,0.010850694444444444,46.22395833333333,0)" xlink:href="#aQ"/></g><path d="M218-607c0-325 108-727 258-974h175c-155 315-250 682-250 974 0 265 78 531 250 886H476C306-10 218-315 218-607" id="aR"/><path d="M96 279C273-86 346-350 346-607c0-292-95-659-250-974h175c150 246 258 650 258 974 0 297-91 602-258 886H96" id="aS"/><g id="A"><use transform="matrix(0.010850694444444444,0,0,0.010850694444444444,0,0)" xlink:href="#W"/><use transform="matrix(0.010850694444444444,0,0,0.010850694444444444,5.381944444444445,0)" xlink:href="#ae"/><use transform="matrix(0.010850694444444444,0,0,0.010850694444444444,18.70659722222222,0)" xlink:href="#aQ"/><use transform="matrix(0.010850694444444444,0,0,0.010850694444444444,32.33506944444444,0)" xlink:href="#V"/><use transform="matrix(0.010850694444444444,0,0,0.010850694444444444,37.717013888888886,0)" xlink:href="#Y"/><use transform="matrix(0.010850694444444444,0,0,0.010850694444444444,50.846354166666664,0)" xlink:href="#aR"/><use transform="matrix(0.010850694444444444,0,0,0.010850694444444444,58.951822916666664,0)" xlink:href="#aS"/></g><path d="M537 14c-226 0-379-139-379-422v-710h180v695c0 172 97 275 253 275 160 0 281-109 281-300v-670h181V0H879v-209C806-46 684 14 537 14" id="aT"/><g id="B"><use transform="matrix(0.010850694444444444,0,0,0.010850694444444444,0,0)" xlink:href="#aT"/><use transform="matrix(0.010850694444444444,0,0,0.010850694444444444,13.140190972222221,0)" xlink:href="#aa"/><use transform="matrix(0.010850694444444444,0,0,0.010850694444444444,26.746961805555554,0)" xlink:href="#an"/><use transform="matrix(0.010850694444444444,0,0,0.010850694444444444,40.353732638888886,0)" xlink:href="#ab"/><use transform="matrix(0.010850694444444444,0,0,0.010850694444444444,52.83203125,0)" xlink:href="#ac"/><use transform="matrix(0.010850694444444444,0,0,0.010850694444444444,59.8849826388889,0)" xlink:href="#ah"/><use transform="matrix(0.010850694444444444,0,0,0.010850694444444444,72.84071180555556,0)" xlink:href="#ak"/><use transform="matrix(0.010850694444444444,0,0,0.010850694444444444,87.38064236111111,0)" xlink:href="#V"/><use transform="matrix(0.010850694444444444,0,0,0.010850694444444444,92.76258680555556,0)" xlink:href="#ae"/><use transform="matrix(0.010850694444444444,0,0,0.010850694444444444,106.08723958333333,0)" xlink:href="#aR"/><use transform="matrix(0.010850694444444444,0,0,0.010850694444444444,114.19270833333333,0)" xlink:href="#aS"/></g><path d="M135 0v-1490h305v1237h643V0H135" id="aU"/><path d="M428-647V0H128v-1118h283l4 231c63-156 176-245 348-245 232 0 384 159 384 421V0H847v-659c0-139-76-222-202-222-128 0-217 86-217 234" id="aV"/><g id="C"><use transform="matrix(0.010850694444444444,0,0,0.010850694444444444,0,0)" xlink:href="#aU"/><use transform="matrix(0.010850694444444444,0,0,0.010850694444444444,12.565104166666666,0)" xlink:href="#aI"/><use transform="matrix(0.010850694444444444,0,0,0.010850694444444444,26.01996527777778,0)" xlink:href="#aM"/><use transform="matrix(0.010850694444444444,0,0,0.010850694444444444,38.92144097222222,0)" xlink:href="#aJ"/><use transform="matrix(0.010850694444444444,0,0,0.010850694444444444,48.13368055555556,0)" xlink:href="#aV"/><use transform="matrix(0.010850694444444444,0,0,0.010850694444444444,61.96831597222221,0)" xlink:href="#aI"/><use transform="matrix(0.010850694444444444,0,0,0.010850694444444444,75.20616319444443,0)" xlink:href="#aJ"/></g><g id="D"><use transform="matrix(0.010850694444444444,0,0,0.010850694444444444,0,0)" xlink:href="#Z"/><use transform="matrix(0.010850694444444444,0,0,0.010850694444444444,12.6953125,0)" xlink:href="#ah"/><use transform="matrix(0.010850694444444444,0,0,0.010850694444444444,25.651041666666664,0)" xlink:href="#af"/><use transform="matrix(0.010850694444444444,0,0,0.010850694444444444,34.36414930555555,0)" xlink:href="#ac"/><use transform="matrix(0.010850694444444444,0,0,0.010850694444444444,41.63411458333333,0)" xlink:href="#V"/><use transform="matrix(0.010850694444444444,0,0,0.010850694444444444,47.01605902777778,0)" xlink:href="#ad"/><use transform="matrix(0.010850694444444444,0,0,0.010850694444444444,55.24088541666666,0)" xlink:href="#V"/><use transform="matrix(0.010850694444444444,0,0,0.010850694444444444,60.6228298611111,0)" xlink:href="#Z"/><use transform="matrix(0.010850694444444444,0,0,0.010850694444444444,73.53515624999999,0)" xlink:href="#ab"/><use transform="matrix(0.010850694444444444,0,0,0.010850694444444444,86.0134548611111,0)" xlink:href="#ac"/><use transform="matrix(0.010850694444444444,0,0,0.010850694444444444,93.06640624999997,0)" xlink:href="#ah"/><use transform="matrix(0.010850694444444444,0,0,0.010850694444444444,106.02213541666666,0)" xlink:href="#aj"/><use transform="matrix(0.010850694444444444,0,0,0.010850694444444444,117.7517361111111,0)" xlink:href="#aP"/></g><g id="E"><use transform="matrix(0.010850694444444444,0,0,0.010850694444444444,0,0)" xlink:href="#W"/><use transform="matrix(0.010850694444444444,0,0,0.010850694444444444,5.381944444444445,0)" xlink:href="#V"/><use transform="matrix(0.010850694444444444,0,0,0.010850694444444444,10.76388888888889,0)" xlink:href="#aj"/><use transform="matrix(0.010850694444444444,0,0,0.010850694444444444,22.493489583333336,0)" xlink:href="#ac"/></g><path d="M593-100v-404H195v-159h398v-403h169v403h398v159H762v404H593" id="aW"/><use transform="matrix(0.010850694444444444,0,0,0.010850694444444444,0,0)" xlink:href="#aW" id="F"/><path d="M677 24c-213 0-288-135-325-197h-20V0H158v-1490h180v551h14c37-59 106-193 324-193 279 0 474 222 474 576 0 356-194 580-473 580zm-27-161c209 0 317-186 317-421 0-232-105-413-317-413-206 0-314 166-314 413 0 249 111 421 314 421" id="aX"/><g id="G"><use transform="matrix(0.010850694444444444,0,0,0.010850694444444444,0,0)" xlink:href="#aX"/><use transform="matrix(0.010850694444444444,0,0,0.010850694444444444,13.606770833333332,0)" xlink:href="#ae"/><use transform="matrix(0.010850694444444444,0,0,0.010850694444444444,26.931423611111104,0)" xlink:href="#ae"/><use transform="matrix(0.010850694444444444,0,0,0.010850694444444444,40.256076388888886,0)" xlink:href="#U"/><use transform="matrix(0.010850694444444444,0,0,0.010850694444444444,52.45225694444444,0)" xlink:href="#T"/><use transform="matrix(0.010850694444444444,0,0,0.010850694444444444,66.71006944444444,0)" xlink:href="#ah"/><use transform="matrix(0.010850694444444444,0,0,0.010850694444444444,79.66579861111111,0)" xlink:href="#aj"/><use transform="matrix(0.010850694444444444,0,0,0.010850694444444444,91.39539930555556,0)" xlink:href="#aj"/><use transform="matrix(0.010850694444444444,0,0,0.010850694444444444,103.125,0)" xlink:href="#V"/><use transform="matrix(0.010850694444444444,0,0,0.010850694444444444,108.50694444444444,0)" xlink:href="#ae"/><use transform="matrix(0.010850694444444444,0,0,0.010850694444444444,121.83159722222221,0)" xlink:href="#Y"/><use transform="matrix(0.010850694444444444,0,0,0.010850694444444444,134.9609375,0)" xlink:href="#aR"/><use transform="matrix(0.010850694444444444,0,0,0.010850694444444444,143.06640625,0)" xlink:href="#aS"/></g><path d="M135 0v-1490h468l242 684c30 94 76 293 111 455 34-161 80-360 110-455l238-684h470V0h-307c0-447-3-765 11-1227-122 503-246 788-395 1227H826C676-435 552-717 427-1215c15 453 11 775 11 1215H135" id="aY"/><path d="M683-1118v229H474v562c0 71 29 104 102 104 23 0 73-7 95-13l43 225C647 9 580 16 520 16 296 16 174-96 174-301v-588H20v-229h154v-266h300v266h209" id="aZ"/><path d="M628 22C291 22 81-210 81-554c0-346 210-578 547-578 336 0 547 232 547 578 0 344-211 576-547 576zm0-236c160 0 242-146 242-341 0-197-82-341-242-341S387-753 387-555c0 195 81 341 241 341" id="ba"/><g id="H"><use transform="matrix(0.010850694444444444,0,0,0.010850694444444444,0,0)" xlink:href="#aY"/><use transform="matrix(0.010850694444444444,0,0,0.010850694444444444,20.703125,0)" xlink:href="#aI"/><use transform="matrix(0.010850694444444444,0,0,0.010850694444444444,33.94097222222222,0)" xlink:href="#aV"/><use transform="matrix(0.010850694444444444,0,0,0.010850694444444444,47.775607638888886,0)" xlink:href="#aZ"/><use transform="matrix(0.010850694444444444,0,0,0.010850694444444444,55.69661458333333,0)" xlink:href="#ba"/><use transform="matrix(0.010850694444444444,0,0,0.010850694444444444,69.32508680555556,0)" xlink:href="#aJ"/></g><g id="I"><use transform="matrix(0.010850694444444444,0,0,0.010850694444444444,0,0)" xlink:href="#af"/><use transform="matrix(0.010850694444444444,0,0,0.010850694444444444,8.365885416666666,0)" xlink:href="#ab"/><use transform="matrix(0.010850694444444444,0,0,0.010850694444444444,20.84418402777778,0)" xlink:href="#ac"/><use transform="matrix(0.010850694444444444,0,0,0.010850694444444444,27.897135416666664,0)" xlink:href="#ah"/><use transform="matrix(0.010850694444444444,0,0,0.010850694444444444,40.852864583333336,0)" xlink:href="#aP"/><use transform="matrix(0.010850694444444444,0,0,0.010850694444444444,47.25477430555556,0)" xlink:href="#ad"/><use transform="matrix(0.010850694444444444,0,0,0.010850694444444444,55.47960069444444,0)" xlink:href="#W"/><use transform="matrix(0.010850694444444444,0,0,0.010850694444444444,60.861545138888886,0)" xlink:href="#ae"/><use transform="matrix(0.010850694444444444,0,0,0.010850694444444444,74.40321180555554,0)" xlink:href="#ab"/><use transform="matrix(0.010850694444444444,0,0,0.010850694444444444,86.88151041666666,0)" xlink:href="#ac"/></g><g id="J"><use transform="matrix(0.010850694444444444,0,0,0.010850694444444444,0,0)" xlink:href="#W"/><use transform="matrix(0.010850694444444444,0,0,0.010850694444444444,5.381944444444445,0)" xlink:href="#V"/><use transform="matrix(0.010850694444444444,0,0,0.010850694444444444,10.76388888888889,0)" xlink:href="#aj"/><use transform="matrix(0.010850694444444444,0,0,0.010850694444444444,22.493489583333336,0)" xlink:href="#ac"/><use transform="matrix(0.010850694444444444,0,0,0.010850694444444444,29.763454861111114,0)" xlink:href="#T"/><use transform="matrix(0.010850694444444444,0,0,0.010850694444444444,44.021267361111114,0)" xlink:href="#U"/><use transform="matrix(0.010850694444444444,0,0,0.010850694444444444,56.21744791666667,0)" xlink:href="#V"/><use transform="matrix(0.010850694444444444,0,0,0.010850694444444444,61.59939236111112,0)" xlink:href="#W"/><use transform="matrix(0.010850694444444444,0,0,0.010850694444444444,66.98133680555556,0)" xlink:href="#W"/><use transform="matrix(0.010850694444444444,0,0,0.010850694444444444,72.36328125,0)" xlink:href="#aR"/><use transform="matrix(0.010850694444444444,0,0,0.010850694444444444,80.46875,0)" xlink:href="#aS"/></g><path d="M681 22C323 22 94-145 85-462h297c10 151 131 226 296 226 163 0 271-77 271-190 0-102-95-149-257-189l-164-41c-252-61-403-188-403-405 0-269 236-449 560-449 330 0 546 183 551 445H941c-11-119-106-188-259-188-156 0-244 72-244 172-3 156 226 185 373 221 250 61 445 186 445 436 0 271-213 446-575 446" id="bb"/><path d="M128 0v-1118h300V0H128zm150-1264c-91 0-165-68-165-154 0-85 74-154 165-154 90 0 165 69 165 154 0 86-75 154-165 154" id="bc"/><g id="K"><use transform="matrix(0.010850694444444444,0,0,0.010850694444444444,0,0)" xlink:href="#bb"/><use transform="matrix(0.010850694444444444,0,0,0.010850694444444444,14.55078125,0)" xlink:href="#aI"/><use transform="matrix(0.010850694444444444,0,0,0.010850694444444444,27.78862847222222,0)" xlink:href="#aH"/><use transform="matrix(0.010850694444444444,0,0,0.010850694444444444,40.234375,0)" xlink:href="#aH"/><use transform="matrix(0.010850694444444444,0,0,0.010850694444444444,52.68012152777778,0)" xlink:href="#bc"/><use transform="matrix(0.010850694444444444,0,0,0.010850694444444444,58.70225694444444,0)" xlink:href="#ba"/><use transform="matrix(0.010850694444444444,0,0,0.010850694444444444,72.33072916666666,0)" xlink:href="#aV"/></g><g id="L"><use transform="matrix(0.010850694444444444,0,0,0.010850694444444444,0,0)" xlink:href="#an"/><use transform="matrix(0.010850694444444444,0,0,0.010850694444444444,13.606770833333332,0)" xlink:href="#ab"/><use transform="matrix(0.010850694444444444,0,0,0.010850694444444444,26.085069444444443,0)" xlink:href="#ac"/><use transform="matrix(0.010850694444444444,0,0,0.010850694444444444,33.13802083333333,0)" xlink:href="#ah"/><use transform="matrix(0.010850694444444444,0,0,0.010850694444444444,44.357638888888886,0)" xlink:href="#am"/><use transform="matrix(0.010850694444444444,0,0,0.010850694444444444,58.70225694444444,0)" xlink:href="#V"/><use transform="matrix(0.010850694444444444,0,0,0.010850694444444444,64.08420138888889,0)" xlink:href="#ag"/><use transform="matrix(0.010850694444444444,0,0,0.010850694444444444,83.55034722222221,0)" xlink:href="#ah"/><use transform="matrix(0.010850694444444444,0,0,0.010850694444444444,96.50607638888889,0)" xlink:href="#aP"/></g><path d="M645 0H180v-1490h484c435 0 692 280 692 742 0 466-257 748-711 748zM370-168h263c363 0 539-218 539-580 0-358-176-574-521-574H370v1154" id="bd"/><g id="M"><use transform="matrix(0.010850694444444444,0,0,0.010850694444444444,0,0)" xlink:href="#bd"/><use transform="matrix(0.010850694444444444,0,0,0.010850694444444444,16.03732638888889,0)" xlink:href="#ab"/><use transform="matrix(0.010850694444444444,0,0,0.010850694444444444,28.515625,0)" xlink:href="#ac"/><use transform="matrix(0.010850694444444444,0,0,0.010850694444444444,35.568576388888886,0)" xlink:href="#ah"/></g><g id="N"><use transform="matrix(0.010850694444444444,0,0,0.010850694444444444,0,0)" xlink:href="#aj"/><use transform="matrix(0.010850694444444444,0,0,0.010850694444444444,11.729600694444445,0)" xlink:href="#ac"/><use transform="matrix(0.010850694444444444,0,0,0.010850694444444444,19.108072916666668,0)" xlink:href="#ab"/><use transform="matrix(0.010850694444444444,0,0,0.010850694444444444,31.586371527777775,0)" xlink:href="#ac"/><use transform="matrix(0.010850694444444444,0,0,0.010850694444444444,38.85633680555556,0)" xlink:href="#aT"/><use transform="matrix(0.010850694444444444,0,0,0.010850694444444444,51.99652777777778,0)" xlink:href="#aj"/><use transform="matrix(0.010850694444444444,0,0,0.010850694444444444,63.72612847222222,0)" xlink:href="#aP"/></g><g id="O"><use transform="matrix(0.010850694444444444,0,0,0.010850694444444444,0,0)" xlink:href="#aj"/><use transform="matrix(0.010850694444444444,0,0,0.010850694444444444,11.729600694444445,0)" xlink:href="#ac"/><use transform="matrix(0.010850694444444444,0,0,0.010850694444444444,19.108072916666668,0)" xlink:href="#ab"/><use transform="matrix(0.010850694444444444,0,0,0.010850694444444444,31.586371527777775,0)" xlink:href="#af"/><use transform="matrix(0.010850694444444444,0,0,0.010850694444444444,40.299479166666664,0)" xlink:href="#ac"/><use transform="matrix(0.010850694444444444,0,0,0.010850694444444444,47.56944444444444,0)" xlink:href="#aR"/><use transform="matrix(0.010850694444444444,0,0,0.010850694444444444,55.67491319444444,0)" xlink:href="#aS"/></g><g id="P"><use transform="matrix(0.010850694444444444,0,0,0.010850694444444444,0,0)" xlink:href="#Z"/><use transform="matrix(0.010850694444444444,0,0,0.010850694444444444,12.6953125,0)" xlink:href="#ae"/><use transform="matrix(0.010850694444444444,0,0,0.010850694444444444,26.01996527777778,0)" xlink:href="#ag"/><use transform="matrix(0.010850694444444444,0,0,0.010850694444444444,45.48611111111111,0)" xlink:href="#aa"/><use transform="matrix(0.010850694444444444,0,0,0.010850694444444444,59.09288194444444,0)" xlink:href="#W"/><use transform="matrix(0.010850694444444444,0,0,0.010850694444444444,64.47482638888889,0)" xlink:href="#ah"/><use transform="matrix(0.010850694444444444,0,0,0.010850694444444444,77.43055555555556,0)" xlink:href="#ac"/><use transform="matrix(0.010850694444444444,0,0,0.010850694444444444,84.48350694444444,0)" xlink:href="#ah"/><use transform="matrix(0.010850694444444444,0,0,0.010850694444444444,97.43923611111111,0)" xlink:href="#aR"/><use transform="matrix(0.010850694444444444,0,0,0.010850694444444444,105.54470486111111,0)" xlink:href="#aS"/></g><g id="Q"><use transform="matrix(0.01193576388888889,0,0,0.01193576388888889,0,0)" xlink:href="#ab"/><use transform="matrix(0.01193576388888889,0,0,0.01193576388888889,13.726128472222223,0)" xlink:href="#ac"/><use transform="matrix(0.01193576388888889,0,0,0.01193576388888889,21.126302083333336,0)" xlink:href="#ac"/><use transform="matrix(0.01193576388888889,0,0,0.01193576388888889,28.884548611111114,0)" xlink:href="#ah"/><use transform="matrix(0.01193576388888889,0,0,0.01193576388888889,43.13585069444445,0)" xlink:href="#Y"/><use transform="matrix(0.01193576388888889,0,0,0.01193576388888889,57.57812500000001,0)" xlink:href="#an"/><use transform="matrix(0.01193576388888889,0,0,0.01193576388888889,72.54557291666667,0)" xlink:href="#aj"/></g><path d="M653-1490V0H466v-1314h-10L96-1047v-204l324-239h233" id="be"/><path d="M295 13c-75 0-135-60-135-135s60-135 135-135 135 60 135 135S370 13 295 13" id="bf"/><path d="M441-652l13-317-268 171-72-126 282-146-282-146 72-128 268 171-13-317h144l-12 317 267-171 72 128-282 146 282 146-72 126-267-171 12 317H441" id="bg"/><g id="R"><use transform="matrix(0.01193576388888889,0,0,0.01193576388888889,0,0)" xlink:href="#be"/><use transform="matrix(0.01193576388888889,0,0,0.01193576388888889,9.942491319444445,0)" xlink:href="#bf"/><use transform="matrix(0.01193576388888889,0,0,0.01193576388888889,16.98459201388889,0)" xlink:href="#bf"/><use transform="matrix(0.01193576388888889,0,0,0.01193576388888889,24.026692708333336,0)" xlink:href="#bg"/></g><g id="S"><use transform="matrix(0.01193576388888889,0,0,0.01193576388888889,0,0)" xlink:href="#V"/><use transform="matrix(0.01193576388888889,0,0,0.01193576388888889,5.920138888888889,0)" xlink:href="#Y"/><use transform="matrix(0.01193576388888889,0,0,0.01193576388888889,20.362413194444446,0)" xlink:href="#aj"/><use transform="matrix(0.01193576388888889,0,0,0.01193576388888889,33.264973958333336,0)" xlink:href="#ac"/><use transform="matrix(0.01193576388888889,0,0,0.01193576388888889,41.26193576388889,0)" xlink:href="#af"/><use transform="matrix(0.01193576388888889,0,0,0.01193576388888889,50.46440972222223,0)" xlink:href="#aT"/><use transform="matrix(0.01193576388888889,0,0,0.01193576388888889,64.91861979166667,0)" xlink:href="#Z"/><use transform="matrix(0.01193576388888889,0,0,0.01193576388888889,78.88346354166667,0)" xlink:href="#ac"/><use transform="matrix(0.01193576388888889,0,0,0.01193576388888889,86.64171006944446,0)" xlink:href="#aj"/></g></defs></g></svg>